<svg xmlns="http://www.w3.org/2000/svg" fill="none" class="sc-edf31151-1 hwwoBp" width="" height=""  preserveAspectRatio="none" viewBox="0 0 122 38"><path fill="rgb(255, 192, 70)" d="M7.524 34.652c-1.607.104-3.147.182-4.676.313-1.887.17-2.623-.652-2.68-2.987-.066-2.517.068-5.048.336-7.552.424-4.03.29-8.034-.168-12.039a73 73 0 0 1-.323-3.143c-.1-1.278.401-2.152 1.495-2.452.692-.196 1.407-.274 2.11-.379.49-.078 1.06.157 1.328-.639.033-.091.592-.117.659.013.3.548.714.457 1.138.418 2.076-.17 4.163-.352 6.117-.509-2.623-.248-5.37-.483-8.115-.77-.748-.078-1.496-.313-2.232-.521-.168-.052-.413-.313-.402-.457.011-.221.179-.534.346-.613.223-.104.525-.104.759-.026 2.6.848 5.28.783 7.925.9 4.654.209 9.32.326 13.974.352 2.467.013 4.934-.221 7.4-.378 2.21-.13 4.41-.3 6.62-.443 3.08-.21 6.16-.405 9.252-.6 2.97-.196 5.927-.379 8.896-.561 3.516-.209 7.02-.444 10.537-.613 4.297-.209 8.594-.366 12.891-.561 3.706-.17 7.412-.391 11.106-.587 3.75-.196 7.5-.378 11.251-.561 1.92-.091 3.851-.196 5.771-.248.881-.026 1.763 0 2.634.118 1.294.182 2.333.926 3.002 2.27.212.43.458.56.86.534a40 40 0 0 1 2.779-.157c1.071-.013 1.73.483 2.02 1.683.279 1.148.469 2.322.558 3.509.201 2.712.302 5.426.469 8.139.19 3.078.424 6.143.625 9.208.078 1.24.179 2.491.212 3.743.034 1.305-.39 1.97-1.462 2.296-.569.17-1.172.222-1.752.326-3.036.548-6.072.17-9.108.026-5.179-.235-10.336-.73-15.526-.13-4.844.56-9.7.939-14.555 1.408-4.777.47-9.554.992-14.343 1.448-8.471.809-16.943 1.787-25.46 1.878-3.85.053-7.7.066-11.552.17-5.703.157-11.407.391-17.1.6-.59.026-1.182.052-1.785.052-1.05.013-1.485-.417-1.686-1.656-.044-.248-.089-.496-.145-.822m109.061-4.056c.022-.535.056-.861.044-1.187-.078-3.718-.145-7.435-.234-11.165-.112-4.592-1.094-9-2.221-13.357-.112-.443-.279-.6-.703-.574-5.693.379-11.385.81-17.078 1.07-6.217.274-12.445.43-18.673.548-6.105.117-12.222.182-18.327.195-9.175.027-18.35.053-27.525-.078-4.33-.065-8.64.078-12.959.496-3.08.3-6.161.496-9.242.743-1.172.092-2.355.209-3.638.313 1.562 8.505 1.998 17.06 2.69 25.487 1.183 0 2.31.026 3.449 0 6.395-.144 12.78-.248 19.175-.47 4.298-.143 8.595-.443 12.88-.691 2.892-.17 5.794-.34 8.685-.522 2.511-.17 5.022-.352 7.534-.535 2.991-.208 5.971-.43 8.962-.613 2.657-.156 5.313-.3 7.981-.365 4.398-.117 8.795-.235 13.182-.26 3.773-.027 7.556.182 11.329.064 3.572-.117 7.121 0 10.671.51 1.317.169 2.645.26 4.018.39M7.602 33.335c-.759-8.661-1.138-17.217-2.756-25.709-.994.157-1.976.287-2.958.457-.57.091-.804.509-.737 1.187.078.691.167 1.37.212 2.06.179 3.04.491 6.092.469 9.131-.022 2.843-.458 5.687-.603 8.53-.067 1.252.067 2.544.223 3.796.034.313.47.809.715.809 1.752-.04 3.505-.157 5.435-.261M43.387 4.809v.104h1.998c6.686-.052 13.36-.09 20.046-.182 8.438-.118 16.876-.274 25.315-.457 3.091-.065 6.172-.234 9.264-.404 3.415-.183 6.831-.417 10.246-.64 1.027-.064 2.054-.156 3.081-.234l.1-.274c-.524-.378-1.016-.874-1.585-1.108a4.4 4.4 0 0 0-1.819-.313c-5.268.221-10.548.482-15.816.73-5.347.248-10.682.496-16.028.77-7.077.365-14.153.743-21.219 1.147-4.531.248-9.052.574-13.583.861M8.752 34.548c-.033.965.201 1.278.96 1.239 5.157-.248 10.302-.496 15.459-.64 5.056-.13 10.124-.038 15.19-.221a337.7 337.7 0 0 0 14.946-.9c4.856-.391 9.7-.965 14.544-1.448 5.19-.522 10.37-1.03 15.56-1.539a203 203 0 0 0-11.62.274c-4.844.26-9.677.626-14.521.939-4.431.287-8.874.587-13.305.848-5.648.326-11.296.691-16.943.913-5.135.209-10.269.248-15.403.365-1.608.078-3.226.13-4.867.17m108.96-4.057c.871-.143 1.619-.26 2.355-.391.569-.105.804-.47.759-1.161-.178-2.883-.335-5.765-.502-8.635-.212-3.43-.402-6.86-.659-10.29-.122-1.657-.357-3.3-.58-4.944-.067-.496-.301-.978-.837-.965-.982.026-1.976.078-3.125.13 2.757 8.543 2.69 17.335 2.589 26.256"/></svg>